<?xml version="1.0" ?><svg enable-background="new 0 0 512 512" version="1.1" viewBox="0 0 512 512" xml:space="preserve" xmlns="http://www.w3.org/2000/svg" xmlns:xlink="http://www.w3.org/1999/xlink"><g id="guides"/><g id="icon"><g><polygon fill="#231F20" points="424,112.733 396.845,71.999 115.155,71.999 88,112.733 88,424 424,424   "/><rect fill="#292A35" height="280" width="288" x="112" y="120"/><polygon fill="#292A35" points="384,95.999 128,95.999 112,120 400,120   "/><polygon fill="#363742" points="117.333,111.999 112,120 400,120 394.666,111.999   "/></g><path d="M328,208c-17.673,0-32-14.327-32-32h-24v128c0,17.673-14.327,32-32,32s-32-14.327-32-32   c0-17.673,14.327-32,32-32v-24c-30.928,0-56,25.072-56,56c0,30.928,25.072,56,56,56s56-25.072,56-56c0,0,0-77.427,0-82.055   c9.072,6.331,20.098,10.055,32,10.055V208z" fill="#FF004C"/><path d="M312,192c-17.673,0-32-14.327-32-32h-24v128c0,17.673-14.327,32-32,32s-32-14.327-32-32   c0-17.673,14.327-32,32-32v-24c-30.928,0-56,25.072-56,56c0,30.928,25.072,56,56,56s56-25.072,56-56c0,0,0-77.427,0-82.055   c9.072,6.331,20.098,10.055,32,10.055V192z" fill="#3ACCD3"/><path d="M320,200c-17.673,0-32-14.327-32-32h-24v128c0,17.673-14.327,32-32,32s-32-14.327-32-32   c0-17.673,14.327-32,32-32v-24c-30.928,0-56,25.072-56,56c0,30.928,25.072,56,56,56s56-25.072,56-56c0,0,0-77.427,0-82.055   c9.072,6.331,20.098,10.055,32,10.055V200z" fill="#FFFFFF"/></g></svg>